# AST/ASF file generated using VICON BodyLanguage
# -----------------------------------------------
:version 1.10
:name VICON
:units
  mass 1.0
  length 0.45
  angle deg
:documentation
   .ast/.asf automatically generated from VICON data using
   VICON BodyBuilder and BodyLanguage model FoxedUp or BRILLIANT.MOD
:root
   order TX TY TZ RX RY RZ
   axis XYZ
   position 0 0 0  
   orientation 0 0 0 
:bonedata
  begin
     id 1 
     name lhipjoint
     direction 0.635376 -0.686425 0.353719 
     length 2.47244 
     axis 0 0 0  XYZ
  end
  begin
     id 2 
     name lfemur
     direction 0.34202 -0.939693 0  
     length 7.25268  
     axis 0 0 20  XYZ
    dof rx ry rz
    limits (-160.0 20.0)
           (-70.0 70.0)
           (-60.0 70.0)
  end
  begin
     id 3 
     name ltibia
     direction 0.34202 -0.939693 0   
     length 7.6767   
     axis 0 0 20   XYZ
    dof rx
    limits (-10.0 170.0)
  end
  begin
     id 4 
     name lfoot
     direction 0.0803374 -0.220725 0.972022   
     length 2.22945   
     axis -90 7.62852e-016 20   XYZ
    dof rx rz
    limits (-45.0 90.0)
           (-70.0 20.0)
  end
  begin
     id 5 
     name ltoes
     direction 1.53579e-011 -4.21994e-011 1   
     length 1.11848   
     axis -90 7.62852e-016 20   XYZ
    dof rx
    limits (-90.0 20.0)
  end
  begin
     id 6 
     name rhipjoint
     direction -0.664428 -0.664335 0.342336   
     length 2.55466  
     axis 0 0 0  XYZ 
  end
  begin
     id 7 
     name rfemur
     direction -0.34202 -0.939693 0   
     length 6.83172   
     axis 0 0 -20   XYZ
    dof rx ry rz
    limits (-160.0 20.0)
           (-70.0 70.0)
           (-70.0 60.0)
  end
  begin
     id 8 
     name rtibia
     direction -0.34202 -0.939693 0   
     length 7.62692   
     axis 0 0 -20   XYZ
    dof rx
    limits (-10.0 170.0)
 end
 begin
     id 9 
     name rfoot
     direction -0.0949276 -0.260811 0.960711   
     length 2.19684  
     axis -90 -7.62852e-016 -20   XYZ
    dof rx rz
    limits (-45.0 90.0)
           (-20.0 70.0)
  end
  begin
     id 10 
     name rtoes
     direction -1.53543e-011 -4.2183e-011 1   
     length 1.09848   
     axis -90 -7.62852e-016 -20   XYZ
    dof rx
    limits (-90.0 20.0)
  end
  begin
     id 11 
     name lowerback
     direction 0.0118782 0.999815 -0.0151555   
     length 2.15772   
     axis 0 0 0   XYZ
    dof rx ry rz
    limits (-20.0 45.0)
           (-30.0 30.0)
           (-30.0 30.0)
  end
  begin
     id 12 
     name upperback
     direction 0.00130825 0.999065 0.0432113   
     length 2.14863   
     axis 0 0 0   XYZ
    dof rx ry rz
    limits (-20.0 45.0)
           (-30.0 30.0)
           (-30.0 30.0)
  end
  begin
     id 13 
     name thorax
     direction -0.00347005 0.998773 0.0494011   
     length 2.14936   
     axis 0 0 0   XYZ
    dof rx ry rz
    limits (-20.0 45.0)
           (-30.0 30.0)
           (-30.0 30.0)
  end
  begin
     id 14 
     name lowerneck
     direction -0.0262159 0.99424 0.103921   
     length 1.69373   
     axis 0 0 0   XYZ
    dof rx ry rz
    limits (-20.0 45.0)
           (-30.0 30.0)
           (-30.0 30.0)
  end
  begin
     id 15 
     name upperneck
     direction 0.0353511 0.977394 -0.20845   
     length 1.70857   
     axis 0 0 0   XYZ
    dof rx ry rz
    limits (-20.0 45.0)
           (-30.0 30.0)
           (-30.0 30.0)
  end
  begin
     id 16
     name head
     direction 0.0139214 0.996594 -0.0812836  
     length 1.72777  
     axis 0 0 0   XYZ
    dof rx ry rz
    limits (-20.0 45.0)
           (-30.0 30.0)
           (-30.0 30.0)
  end
  begin
     id 17 
     name lclavicle
     direction 0.841247 0.537205 -0.0609508  
     length 3.55371  
     axis 0 0 0   XYZ
    dof ry rz
    limits (-20.0 10.0)
           (0.0 20.0)
  end
  begin
     id 18 
     name lhumerus
     direction 1 -4.48964e-011 1.60116e-018   
     length 4.91377   
     axis -180 -30 -90   XYZ
    dof rx ry rz
    limits (-60.0 90.0)
           (-90.0 90.0)
           (-90.0 90.0)
  end
  begin
     id 19
     name lradius
     direction 1 -4.48989e-011 -8.93847e-027   
     length 3.00291   
     axis -180 -30 -90   XYZ
    dof rx
    limits (-10.0 170.0)
  end
  begin
     id 20
     name lwrist
     direction 1 -4.48932e-011 -7.31504e-027   
     length 1.50145   
     axis 5.74121e-015 90 90   XYZ
    dof ry
    limits (-180.0 0.0)
 end
  begin
     id 21 
     name lhand
     direction 1 -4.48971e-011 -1.46301e-026   
     length 0.450922   
     axis 9.33524e-015 90 90   XYZ
    dof rx rz
    limits (-90.0 90.0)
           (-45.0 45.0)
  end
  begin
     id 22 
     name lfingers
     direction 1 -4.49039e-011 -2.92602e-026   
     length 0.363545   
     axis 1.86705e-014 90 90   XYZ
    dof rx
    limits (0.0 90.0)
  end
  begin
     id 23
     name lthumb
     direction 0.707107 -6.34941e-011 0.707107   
     length 0.52198   
     axis -90 45 2.85299e-015   XYZ
    dof rx rz
    limits (-45.0 45.0)
           (-45.0 45.0)
  end
  begin
     id 24 
     name rclavicle
     direction -0.825079 0.56158 -0.0622297   
     length 3.39909  
     axis 0 0 0   XYZ 
    dof ry rz
    limits (-10.0 20.0)
           (-20.0 0.0)
  end
  begin
     id 25 
     name rhumerus
     direction -1 -4.48965e-011 1.61691e-027  
     length 4.86725   
     axis -180 30 90   XYZ
    dof rx ry rz
    limits (-90.0 60.0)
           (-90.0 90.0)
           (-90.0 90.0)
  end
  begin
     id 26 
     name rradius
     direction -1 -4.48964e-011 -2.25776e-027   
     length 3.17144   
     axis -180 30 90   XYZ
    dof rx
    limits (-10.0 170.0)
  end
  begin
     id 27 
     name rwrist
     direction -1 -4.48961e-011 -7.31504e-027   
     length 1.58572   
     axis 5.74121e-015 -90 -90   XYZ
    dof ry
    limits (-180.0 0.0)
  end
  begin
     id 28
     name rhand
     direction -1 -4.49013e-011 -1.46301e-026   
     length 0.419368   
     axis 9.33524e-015 -90 -90   XYZ
    dof rx rz
    limits (-90.0 90.0)
           (-45.0 45.0)
  end
  begin
     id 29
     name rfingers
     direction -1 -4.489e-011 -2.92602e-026   
     length 0.338105   
     axis 1.86705e-014 -90 -90   XYZ
    dof rx
    limits (0.0 90.0)
  end
  begin
     id 30
     name rthumb
     direction -0.707107 -6.35022e-011 0.707107   
     length 0.485453   
     axis -90 -45 -2.85299e-015   XYZ
    dof rx rz
    limits (-45.0 45.0)
           (-45.0 45.0)
  end
:hierarchy
  begin
    root lhipjoint rhipjoint lowerback
    lhipjoint lfemur
    lfemur ltibia
    ltibia lfoot
    lfoot ltoes
    rhipjoint rfemur
    rfemur rtibia
    rtibia rfoot
    rfoot rtoes
    lowerback upperback
    upperback thorax
    thorax lowerneck lclavicle rclavicle
    lowerneck upperneck
    upperneck head
    lclavicle lhumerus
    lhumerus lradius
    lradius lwrist
    lwrist lhand lthumb
    lhand lfingers
    rclavicle rhumerus
    rhumerus rradius
    rradius rwrist
    rwrist rhand rthumb
    rhand rfingers
  end

#!OML:ASF H:\Swim 2\Project 1\Capture day 1\Session 1\male.ASF
:FULLY-SPECIFIED
:DEGREES
784
root 4.56902 15.1151 9.75178 101.366 -67.2038 7.84741
lowerback -23.9028 14.3679 -2.44314
upperback -13.7118 20.6136 -16.9721
thorax 3.17808 10.5397 -11.2535
lowerneck -14.0516 -11.807 29.3277
upperneck -13.7654 -20.8518 -8.97042
head -6.0594 -11.8269 -6.31966
rclavicle -2.8625e-014 5.40694e-014
rhumerus 16.4461 -16.3911 23.6135
rradius 35.4719
rwrist 12.0429
rhand -36.7026 -1.9944
rfingers 7.12502
rthumb -9.78776 -31.7469
lclavicle -2.8625e-014 5.40694e-014
lhumerus 116.715 -20.5928 63.1554
lradius 13.1354
lwrist -14.692
lhand -42.5155 -43.4389
lfingers 7.12502
lthumb -15.3917 -14.0318
rfemur -56.6992 -0.21733 21.6362
rtibia 75.875
rfoot 29.3594 7.06261
rtoes 36.6608
lfemur -57.4474 13.969 -31.7628
ltibia 81.7369
lfoot 24.3734 -1.39874
ltoes 36.6367
785
root 4.54469 15.1135 9.75986 101.628 -67.219 7.6301
lowerback -23.9909 14.3099 -2.40083
upperback -13.8129 20.5142 -17.0119
thorax 3.11382 10.4823 -11.3563
lowerneck -14.2539 -11.6299 29.2942
upperneck -14.0202 -20.703 -9.03182
head -6.08661 -11.7843 -6.36794
rclavicle -4.77083e-014 -1.55847e-013
rhumerus 15.4465 -15.9929 23.5589
rradius 35.2104
rwrist 11.4856
rhand -35.8919 -2.98003
rfingers 7.12502
rthumb -9.00547 -32.7678
lclavicle -4.77083e-014 -1.55847e-013
lhumerus 115.282 -21.4213 65.6767
lradius 11.9642
lwrist -17.9725
lhand -42.18 -42.1917
lfingers 7.12502
lthumb -15.0685 -12.7601
rfemur -56.2409 -0.0390817 21.6288
rtibia 74.1579
rfoot 29.4304 7.29624
rtoes 36.6651
lfemur -57.2566 13.4538 -31.5262
ltibia 80.5539
lfoot 24.2577 -1.67834
ltoes 36.9631
786
root 4.52037 15.1106 9.76782 101.909 -67.2473 7.36109
lowerback -24.0776 14.2603 -2.39828
upperback -13.9088 20.4334 -17.0397
thorax 3.04043 10.435 -11.4194
lowerneck -14.4598 -11.4502 29.2376
upperneck -14.2178 -20.5513 -9.13556
head -6.09516 -11.7345 -6.42995
rclavicle -2.22639e-014 6.36111e-015
rhumerus 14.4718 -15.6939 23.312
rradius 34.9332
rwrist 10.7991
rhand -35.0926 -3.95221
rfingers 7.12502
rthumb -8.23419 -33.7718
lclavicle -2.22639e-014 6.36111e-015
lhumerus 113.424 -22.5558 69.1838
lradius 10.7484
lwrist -22.1968
lhand -41.837 -41.1982
lfingers 7.12502
lthumb -14.7382 -11.7422
rfemur -55.7699 0.149854 21.6094
rtibia 72.3465
rfoot 29.5153 7.47693
rtoes 36.8729
lfemur -57.0693 12.945 -31.3057
ltibia 79.29
lfoot 24.1943 -1.9274
ltoes 37.5349
787
root 4.49594 15.1062 9.77568 102.192 -67.2799 7.05425
lowerback -24.1677 14.2261 -2.4809
upperback -13.9982 20.3905 -17.0524
thorax 2.95007 10.409 -11.4083
lowerneck -14.7273 -11.2743 29.2195
upperneck -14.3596 -20.4369 -9.31849
head -6.09492 -11.7021 -6.52369
rclavicle 1.49486e-013 -4.45278e-014
rhumerus 13.3799 -15.456 22.9555
rradius 34.6823
rwrist 10.1704
rhand -34.185 -4.96687
rfingers 7.12502
rthumb -7.35811 -34.8189
lclavicle 1.49486e-013 -4.45278e-014
lhumerus 111.47 -23.2129 72.1021
lradius 10.2096
lwrist -25.7353
lhand -41.419 -40.0406
lfingers 7.12502
lthumb -14.3354 -10.5555
rfemur -55.2809 0.346631 21.5856
rtibia 70.449
rfoot 29.6116 7.55831
rtoes 37.3121
lfemur -56.8793 12.444 -31.0911
ltibia 77.9491
lfoot 24.2101 -2.15389
ltoes 38.3229
788
root 4.47114 15.1 9.7836 102.482 -67.3226 6.70957
lowerback -24.2747 14.2131 -2.69973
upperback -14.0804 20.4058 -17.0549
thorax 2.83954 10.4168 -11.2931
lowerneck -15.0923 -11.1099 29.2971
upperneck -14.4595 -20.3955 -9.61035
head -6.10137 -11.7101 -6.66333
rclavicle 6.36111e-014 1.90833e-014
rhumerus 12.0467 -15.2828 22.5374
rradius 34.4983
rwrist 9.77265
rhand -33.2161 -5.91985
rfingers 7.12502
rthumb -6.42288 -35.8025
lclavicle 6.36111e-014 1.90833e-014
lhumerus 110.921 -22.6042 71.4127
lradius 9.68112
lwrist -25.8389
lhand -41.4571 -38.7771
lfingers 7.12502
lthumb -14.3721 -9.29464
rfemur -54.7869 0.546125 21.5556
rtibia 68.4754
rfoot 29.723 7.5702
rtoes 37.8133
lfemur -56.69 11.9506 -30.8909
ltibia 76.5337
lfoot 24.302 -2.34032
ltoes 39.316
789
root 4.44577 15.0918 9.79145 102.792 -67.3616 6.31976
lowerback -24.4054 14.2264 -3.06307
upperback -14.1525 20.4903 -17.0503
thorax 2.71499 10.4649 -11.0681
lowerneck -15.5714 -10.9537 29.5075
upperneck -14.5433 -20.4385 -10.0246
head -6.12886 -11.7689 -6.85739
rclavicle -4.77083e-014 7.95139e-014
rhumerus 10.3335 -15.1358 22.1462
rradius 34.4609
rwrist 9.63318
rhand -32.1326 -6.78583
rfingers 7.12502
rthumb -5.37675 -36.6976
lclavicle -4.77083e-014 7.95139e-014
lhumerus 110.337 -22.1713 70.8178
lradius 9.19262
lwrist -26.0861
lhand -41.6407 -37.3337
lfingers 7.12502
lthumb -14.549 -7.86393
rfemur -54.2903 0.761362 21.5266
rtibia 66.4285
rfoot 29.8585 7.47127
rtoes 38.3531
lfemur -56.509 11.4748 -30.6912
ltibia 75.0515
lfoot 24.4981 -2.46093
ltoes 40.5595
790
root 4.41962 15.0811 9.79942 103.096 -67.4021 5.91297
lowerback -24.5522 14.2546 -3.53421
upperback -14.2091 20.6221 -17.0447
thorax 2.58736 10.5416 -10.7694
lowerneck -16.1526 -10.7917 29.8453
upperneck -14.6315 -20.5446 -10.5419
head -6.18049 -11.8706 -7.10119
rclavicle 1.27222e-014 -1.27222e-014
rhumerus 8.2081 -14.9638 21.8166
rradius 34.611
rwrist 9.67181
rhand -31.0359 -7.50831
rfingers 7.12502
rthumb -4.3178 -37.4443
lclavicle 1.27222e-014 -1.27222e-014
lhumerus 109.736 -21.8487 70.2569
lradius 8.79651
lwrist -26.3868
lhand -41.9719 -35.4185
lfingers 7.12502
lthumb -14.868 -5.972
rfemur -53.793 0.980018 21.4923
rtibia 64.3139
rfoot 30.0734 7.25503
rtoes 39.0063
lfemur -56.3343 11.003 -30.4966
ltibia 73.5061
lfoot 24.8016 -2.51419
ltoes 41.9797
791
root 4.39234 15.068 9.8078 103.429 -67.4353 5.4675
lowerback -24.7099 14.2895 -3.9904
upperback -14.2617 20.7632 -17.0444
thorax 2.47564 10.6234 -10.4798
lowerneck -16.6743 -10.6366 30.1969
upperneck -14.7968 -20.6521 -11.0448
head -6.26852 -11.9786 -7.33681
rclavicle 1.68569e-013 4.13472e-014
rhumerus 5.83292 -14.7107 21.506
rradius 34.981
rwrist 9.61132
rhand -29.9124 -8.19866
rfingers 7.12502
rthumb -3.23284 -38.1539
lclavicle 1.68569e-013 4.13472e-014
lhumerus 109.051 -21.5009 69.6914
lradius 8.56801
lwrist -26.613
lhand -42.3062 -32.9241
lfingers 7.12502
lthumb -15.1901 -3.50172
rfemur -53.314 1.21333 21.4592
rtibia 62.1355
rfoot 30.4059 6.97536
rtoes 39.6887
lfemur -56.1816 10.5392 -30.2982
ltibia 71.9045
lfoot 25.1902 -2.46638
ltoes 43.4921
792
root 4.36375 15.0521 9.81636 103.784 -67.4613 4.99515
lowerback -24.8672 14.3203 -4.32531
upperback -14.312 20.8757 -17.0582
thorax 2.40528 10.6871 -10.2736
lowerneck -17.0302 -10.4996 30.4641
upperneck -15.0807 -20.7136 -11.4298
head -6.39105 -12.063 -7.51515
rclavicle -3.81667e-014 9.54166e-015
rhumerus 3.3725 -14.3341 21.1448
rradius 35.5584
rwrist 9.17642
rhand -28.7346 -8.93472
rfingers 7.12502
rthumb -2.09539 -38.9042
lclavicle -3.81667e-014 9.54166e-015
lhumerus 108.245 -20.997 69.0449
lradius 8.56673
lwrist -26.5276
lhand -42.4289 -30.2343
lfingers 7.12502
lthumb -15.3084 -0.820909
rfemur -52.8585 1.46118 21.4251
rtibia 59.8999
rfoot 30.8624 6.63331
rtoes 40.3645
lfemur -56.0555 10.0825 -30.0941
ltibia 70.2529
lfoot 25.6413 -2.33056
ltoes 44.922
793
root 4.33397 15.0337 9.8251 104.167 -67.4788 4.49896
lowerback -25.0006 14.3273 -4.38243
upperback -14.3697 20.8955 -17.0942
thorax 2.40059 10.6942 -10.2594
lowerneck -17.0633 -10.393 30.5073
upperneck -15.5337 -20.6487 -11.5466
head -6.53923 -12.0725 -7.56566
rclavicle -6.99722e-014 -5.08889e-014
rhumerus 1.16824 -13.8646 20.5412
rradius 36.2618
rwrist 8.06842
rhand -27.4294 -9.84391
rfingers 7.12502
rthumb -0.83477 -39.822
lclavicle -6.99722e-014 -5.08889e-014
lhumerus 107.255 -20.1654 68.2077
lradius 8.84858
lwrist -25.9948
lhand -42.329 -27.3483
lfingers 7.12502
lthumb -15.212 2.07246
rfemur -52.435 1.72375 21.3887
rtibia 57.6165
rfoot 31.4515 6.24665
rtoes 41.0834
lfemur -55.9676 9.62445 -29.879
ltibia 68.5604
lfoot 26.1416 -2.0956
ltoes 46.263
794
root 4.30314 15.0127 9.83372 104.569 -67.4893 3.98898
lowerback -25.1117 14.3105 -4.15529
upperback -14.437 20.8196 -17.1552
thorax 2.46301 10.6427 -10.4443
lowerneck -16.7698 -10.321 30.3068
upperneck -16.1448 -20.453 -11.3803
head -6.70564 -12.002 -7.48036
rclavicle -3.18055e-015 4.13472e-014
rhumerus -0.634312 -13.4317 19.5582
rradius 37.0248
rwrist 6.17315
rhand -26.1702 -10.788
rfingers 7.12502
rthumb 0.38132 -40.7674
lclavicle -3.18055e-015 4.13472e-014
lhumerus 106.046 -19.0022 67.1702
lradius 9.48849
lwrist -24.825
lhand -41.916 -24.3918
lfingers 7.12502
lthumb -14.8142 5.05865
rfemur -52.0458 1.99799 21.3508
rtibia 55.299
rfoot 32.1666 5.88429
rtoes 41.7768
lfemur -55.9213 9.16572 -29.6515
ltibia 66.8348
lfoot 26.6631 -1.7895
ltoes 47.3902
795
root 4.27115 14.9893 9.84183 104.98 -67.4883 3.47696
lowerback -25.1706 14.2237 -3.42569
upperback -14.5344 20.5275 -17.2111
thorax 2.58883 10.4612 -10.9609
lowerneck -15.8538 -10.3217 29.5522
upperneck -17.0023 -19.999 -10.6479
head -6.87876 -11.7678 -7.11754
rclavicle -6.99722e-014 4.77083e-014
rhumerus -1.11473 -13.2478 17.79
rradius 37.3977
rwrist 3.38989
rhand -24.7892 -11.9157
rfingers 7.12502
rthumb 1.71514 -41.8885
lclavicle -6.99722e-014 4.77083e-014
lhumerus 104.471 -17.2364 65.7881
lradius 10.546
lwrist -22.8215
lhand -41.1284 -21.4713
lfingers 7.12502
lthumb -14.0554 8.03339
rfemur -51.6894 2.28593 21.317
rtibia 52.9638
rfoot 32.9506 5.54182
rtoes 42.3895
lfemur -55.9188 8.70617 -29.4003
ltibia 65.0854
lfoot 27.1718 -1.40634
ltoes 48.29
796
root 4.23783 14.9635 9.84986 105.36 -67.4805 2.98997
lowerback -25.1929 14.0698 -2.44501
upperback -14.6589 20.0763 -17.2365
thorax 2.69268 10.186 -11.6561
lowerneck -14.6195 -10.3204 28.4598
upperneck -17.9324 -19.3645 -9.62315
head -7.03361 -11.4245 -6.61306
rclavicle -2.54444e-014 -2.8625e-014
rhumerus -0.611515 -13.2703 15.3799
rradius 37.5645
rwrist -0.379872
rhand -23.3174 -13.1922
rfingers 7.12502
rthumb 3.13659 -43.1489
lclavicle -2.54444e-014 -2.8625e-014
lhumerus 104.623 -13.146 55.6913
lradius 12.2214
lwrist -11.4701
lhand -41.0211 -17.8874
lfingers 7.12502
lthumb -13.9519 11.6245
rfemur -51.3518 2.56788 21.2917
rtibia 50.6326
rfoot 33.7254 5.22276
rtoes 42.748
lfemur -55.9425 8.24559 -29.1278
ltibia 63.3166
lfoot 27.6507 -0.985473
ltoes 48.9127
